<svg width="49" height="35" viewBox="0 0 49 35" fill="none" xmlns="http://www.w3.org/2000/svg">
<rect x="0.5" width="48" height="35" rx="8" fill="#E42C5F"/>
<path d="M9.49219 23H11.3125V14.9844H11.3672L14.6172 23H15.9844L19.2344 14.9844H19.2969V23H21.1094V11.7266H18.7812L15.3281 20.3359H15.2734L11.8203 11.7266H9.49219V23ZM26.5703 23.1641C29 23.1641 30.5781 21.5469 30.5781 18.8594V18.8438C30.5781 16.1719 28.9766 14.5469 26.5625 14.5469C24.1562 14.5469 22.5625 16.1875 22.5625 18.8438V18.8594C22.5625 21.5391 24.1328 23.1641 26.5703 23.1641ZM26.5781 21.5938C25.3359 21.5938 24.5469 20.6016 24.5469 18.8594V18.8438C24.5469 17.125 25.3516 16.125 26.5625 16.125C27.7969 16.125 28.5938 17.1172 28.5938 18.8438V18.8594C28.5938 20.5938 27.8047 21.5938 26.5781 21.5938ZM31.8281 23H33.7734V18.1953C33.7734 17 34.4844 16.1875 35.6016 16.1875C36.7109 16.1875 37.2578 16.8516 37.2578 18.0312V23H39.2031V17.6406C39.2031 15.7188 38.1641 14.5469 36.3438 14.5469C35.0859 14.5469 34.2422 15.125 33.8125 16.0156H33.7734V14.7188H31.8281V23Z" fill="white"/>
</svg>
