<svg width="49" height="35" viewBox="0 0 49 35" fill="none" xmlns="http://www.w3.org/2000/svg">
<rect width="49" height="35" rx="8" fill="#ECB800"/>
<path d="M11.3594 23H13.3047L15.5781 14.9141H15.625L17.8984 23H19.8438L22.8672 11.7266H20.7734L18.8125 20.2344H18.7734L16.5156 11.7266H14.6875L12.4297 20.2344H12.3906L10.4297 11.7266H8.33594L11.3594 23ZM26.7344 23.1641C28.8984 23.1641 30.1172 21.8828 30.375 20.6094L30.3984 20.5234H28.5781L28.5625 20.5781C28.375 21.1328 27.7422 21.6484 26.7734 21.6484C25.5078 21.6484 24.7109 20.7891 24.6797 19.3359H30.4766V18.7109C30.4766 16.2109 29.0078 14.5469 26.6406 14.5469C24.2734 14.5469 22.75 16.2656 22.75 18.875V18.8828C22.75 21.5156 24.25 23.1641 26.7344 23.1641ZM26.6641 16.0703C27.6953 16.0703 28.4453 16.7266 28.5859 18.0391H24.7031C24.8594 16.7656 25.6328 16.0703 26.6641 16.0703ZM34.8125 23.1641C36.0078 23.1641 36.9219 22.5703 37.3906 21.5938H37.4375V23H39.3828V11.7266H37.4375V16.1406H37.3906C36.9219 15.1484 35.9766 14.5469 34.8047 14.5469C32.7266 14.5469 31.3906 16.1797 31.3906 18.8516V18.8594C31.3906 21.5234 32.7188 23.1641 34.8125 23.1641ZM35.3984 21.5234C34.1484 21.5234 33.375 20.5078 33.375 18.8594V18.8516C33.375 17.2031 34.1562 16.1875 35.3984 16.1875C36.5938 16.1875 37.4375 17.2344 37.4375 18.8516V18.8594C37.4375 20.4844 36.6016 21.5234 35.3984 21.5234Z" fill="white"/>
</svg>
